<mxfile host="Electron" agent="Mozilla/5.0 (Windows NT 10.0; Win64; x64) AppleWebKit/537.36 (KHTML, like Gecko) draw.io/27.0.2 Chrome/134.0.6998.205 Electron/35.3.0 Safari/537.36" version="27.0.2">
  <diagram name="Страница — 1" id="9lJKZQIn2rOGptUF1BTE">
    <mxGraphModel dx="1198" dy="1698" grid="1" gridSize="10" guides="1" tooltips="1" connect="1" arrows="1" fold="1" page="1" pageScale="1" pageWidth="827" pageHeight="1169" math="0" shadow="0">
      <root>
        <mxCell id="0" />
        <mxCell id="1" parent="0" />
        <mxCell id="Tl4FQw_vcW-S3WmF4InZ-79" value="Компонент доступа к данным" style="swimlane;horizontal=0;whiteSpace=wrap;html=1;fillColor=#FFE6CC;strokeColor=#d79b00;swimlaneFillColor=#FFE6CC;fontFamily=Verdana;fontSize=18;" parent="1" vertex="1">
          <mxGeometry x="1760" y="1200" width="2620" height="500" as="geometry" />
        </mxCell>
        <mxCell id="Tl4FQw_vcW-S3WmF4InZ-22" value="&lt;p style=&quot;margin:0px;margin-top:4px;text-align:center;&quot;&gt;&lt;font face=&quot;Verdana&quot;&gt;&lt;span style=&quot;text-wrap-mode: nowrap;&quot;&gt;User&lt;/span&gt;&lt;span style=&quot;text-wrap-mode: nowrap; background-color: transparent; color: light-dark(rgb(0, 0, 0), rgb(255, 255, 255));&quot;&gt;Repository&lt;/span&gt;&lt;/font&gt;&lt;/p&gt;&lt;hr style=&quot;border-style:solid;&quot;&gt;&lt;pre style=&quot;overflow: auto; padding: 9.144px 13.716px; text-wrap-mode: wrap; word-break: break-all; margin-top: 0px !important; margin-bottom: 0px !important;&quot;&gt;&lt;span style=&quot;background-color: light-dark(#ffffff, var(--ge-dark-color, #121212));&quot;&gt;&lt;font face=&quot;Verdana&quot;&gt;getUser(id: UUID): User?&lt;br&gt;getAllUsers(): List&amp;lt;User&amp;gt;&lt;br&gt;findByUsername(username: String): User?&lt;br&gt;addUser(user: User): UUID&lt;br&gt;updateUser(user: User): Boolean&lt;br&gt;deleteUser(id: UUID): Boolean&lt;/font&gt;&lt;/span&gt;&lt;/pre&gt;" style="verticalAlign=top;align=left;overflow=fill;html=1;whiteSpace=wrap;fontFamily=Verdana;fontSize=18;" parent="Tl4FQw_vcW-S3WmF4InZ-79" vertex="1">
          <mxGeometry x="30" y="270" width="540" height="200" as="geometry" />
        </mxCell>
        <mxCell id="Tl4FQw_vcW-S3WmF4InZ-17" value="&lt;p style=&quot;margin:0px;margin-top:4px;text-align:center;&quot;&gt;&lt;span style=&quot;text-wrap-mode: nowrap;&quot;&gt;IUser&lt;/span&gt;&lt;span style=&quot;text-wrap-mode: nowrap; background-color: transparent; color: light-dark(rgb(0, 0, 0), rgb(255, 255, 255));&quot;&gt;Repository&lt;/span&gt;&lt;/p&gt;&lt;hr style=&quot;border-style:solid;&quot;&gt;&lt;pre style=&quot;overflow: auto; padding: 9.144px 13.716px; text-wrap-mode: wrap; word-break: break-all; margin-top: 0px !important; margin-bottom: 0px !important;&quot;&gt;&lt;span style=&quot;background-color: light-dark(#ffffff, var(--ge-dark-color, #121212));&quot;&gt;&lt;font face=&quot;Verdana&quot;&gt;getUser(id: UUID): User?&lt;br&gt;getAllUsers(): List&amp;lt;User&amp;gt;&lt;br&gt;findByUsername(username: String): User?&lt;br&gt;addUser(user: User): UUID&lt;br&gt;updateUser(user: User): Boolean&lt;br&gt;deleteUser(id: UUID): Boolean&lt;/font&gt;&lt;/span&gt;&lt;/pre&gt;" style="verticalAlign=top;align=left;overflow=fill;html=1;whiteSpace=wrap;fontFamily=Verdana;fontSize=18;" parent="Tl4FQw_vcW-S3WmF4InZ-79" vertex="1">
          <mxGeometry x="30" y="19" width="540" height="201" as="geometry" />
        </mxCell>
        <mxCell id="Tl4FQw_vcW-S3WmF4InZ-27" style="edgeStyle=orthogonalEdgeStyle;rounded=0;orthogonalLoop=1;jettySize=auto;html=1;entryX=0.5;entryY=1;entryDx=0;entryDy=0;endArrow=block;endFill=0;endSize=10;fontFamily=Verdana;fontSize=18;" parent="Tl4FQw_vcW-S3WmF4InZ-79" source="Tl4FQw_vcW-S3WmF4InZ-22" target="Tl4FQw_vcW-S3WmF4InZ-17" edge="1">
          <mxGeometry relative="1" as="geometry" />
        </mxCell>
        <mxCell id="Tl4FQw_vcW-S3WmF4InZ-18" value="&lt;p style=&quot;margin:0px;margin-top:4px;text-align:center;&quot;&gt;&lt;span style=&quot;text-wrap-mode: nowrap;&quot;&gt;IMessage&lt;/span&gt;&lt;span style=&quot;text-wrap-mode: nowrap; background-color: transparent; color: light-dark(rgb(0, 0, 0), rgb(255, 255, 255));&quot;&gt;Repository&lt;/span&gt;&lt;/p&gt;&lt;hr style=&quot;border-style:solid;&quot;&gt;&lt;pre style=&quot;overflow: auto; padding: 9.144px 13.716px; text-wrap-mode: wrap; word-break: break-all; margin-top: 0px !important; margin-bottom: 0px !important;&quot;&gt;&lt;span style=&quot;background-color: light-dark(#ffffff, var(--ge-dark-color, #121212));&quot;&gt;&lt;font face=&quot;Verdana&quot;&gt;getMessage(id: UUID): Message?&lt;br&gt;getAllMessages(): List&amp;lt;Message&amp;gt;&lt;br&gt;getMessagesByChat(chatId: UUID): List&amp;lt;Message&amp;gt;&lt;br&gt;getLastMessageByChat(chatId: UUID): Message?&lt;br&gt;addMessage(message: Message): UUID&lt;br&gt;updateMessage(message: Message): Boolean&lt;br&gt;deleteMessage(id: UUID): Boolean&lt;/font&gt;&lt;/span&gt;&lt;/pre&gt;" style="verticalAlign=top;align=left;overflow=fill;html=1;whiteSpace=wrap;fontFamily=Verdana;fontSize=18;" parent="Tl4FQw_vcW-S3WmF4InZ-79" vertex="1">
          <mxGeometry x="570" y="19" width="590" height="221" as="geometry" />
        </mxCell>
        <mxCell id="Tl4FQw_vcW-S3WmF4InZ-23" value="&lt;p style=&quot;margin:0px;margin-top:4px;text-align:center;&quot;&gt;&lt;span style=&quot;text-wrap-mode: nowrap;&quot;&gt;Message&lt;/span&gt;&lt;span style=&quot;text-wrap-mode: nowrap; background-color: transparent; color: light-dark(rgb(0, 0, 0), rgb(255, 255, 255));&quot;&gt;Repository&lt;/span&gt;&lt;/p&gt;&lt;hr style=&quot;border-style:solid;&quot;&gt;&lt;pre style=&quot;overflow: auto; padding: 9.144px 13.716px; text-wrap-mode: wrap; word-break: break-all; margin-top: 0px !important; margin-bottom: 0px !important;&quot;&gt;&lt;span style=&quot;background-color: light-dark(#ffffff, var(--ge-dark-color, #121212));&quot;&gt;&lt;font face=&quot;Verdana&quot;&gt;getMessage(id: UUID): Message?&lt;br/&gt;getAllMessages(): List&amp;lt;Message&amp;gt;&lt;br/&gt;getMessagesByChat(chatId: UUID): List&amp;lt;Message&amp;gt;&lt;br/&gt;getLastMessageByChat(chatId: UUID): Message?&lt;br/&gt;addMessage(message: Message): UUID&lt;br/&gt;updateMessage(message: Message): Boolean&lt;br/&gt;deleteMessage(id: UUID): Boolean&lt;/font&gt;&lt;/span&gt;&lt;/pre&gt;" style="verticalAlign=top;align=left;overflow=fill;html=1;whiteSpace=wrap;fontFamily=Verdana;fontSize=18;" parent="Tl4FQw_vcW-S3WmF4InZ-79" vertex="1">
          <mxGeometry x="570" y="270" width="590" height="220" as="geometry" />
        </mxCell>
        <mxCell id="Tl4FQw_vcW-S3WmF4InZ-28" style="edgeStyle=orthogonalEdgeStyle;rounded=0;orthogonalLoop=1;jettySize=auto;html=1;entryX=0.5;entryY=1;entryDx=0;entryDy=0;endArrow=block;endFill=0;endSize=10;fontFamily=Verdana;fontSize=18;" parent="Tl4FQw_vcW-S3WmF4InZ-79" source="Tl4FQw_vcW-S3WmF4InZ-23" target="Tl4FQw_vcW-S3WmF4InZ-18" edge="1">
          <mxGeometry relative="1" as="geometry" />
        </mxCell>
        <mxCell id="Tl4FQw_vcW-S3WmF4InZ-19" value="&lt;p style=&quot;margin:0px;margin-top:4px;text-align:center;&quot;&gt;&lt;span style=&quot;text-wrap-mode: nowrap;&quot;&gt;IChat&lt;/span&gt;&lt;span style=&quot;text-wrap-mode: nowrap; background-color: transparent; color: light-dark(rgb(0, 0, 0), rgb(255, 255, 255));&quot;&gt;Repository&lt;/span&gt;&lt;/p&gt;&lt;hr style=&quot;border-style:solid;&quot;&gt;&lt;pre style=&quot;overflow: auto; padding: 9.144px 13.716px; text-wrap-mode: wrap; word-break: break-all; margin-top: 0px !important; margin-bottom: 0px !important;&quot;&gt;&lt;font style=&quot;background-color: light-dark(#ffffff, var(--ge-dark-color, #121212));&quot; face=&quot;Verdana&quot;&gt;getChat(id: UUID): Chat?&lt;br&gt;getAllChats(): List&amp;lt;Chat&amp;gt;&lt;br&gt;getChatsByUser(userId: UUID): List&amp;lt;Chat&amp;gt;&lt;br&gt;addChat(chat: Chat): UUID&lt;br&gt;updateChat(chat: Chat): Boolean&lt;br&gt;deleteChat(id: UUID): Boolean&lt;/font&gt;&lt;/pre&gt;" style="verticalAlign=top;align=left;overflow=fill;html=1;whiteSpace=wrap;fontFamily=Verdana;fontSize=18;" parent="Tl4FQw_vcW-S3WmF4InZ-79" vertex="1">
          <mxGeometry x="1160" y="19" width="560" height="195" as="geometry" />
        </mxCell>
        <mxCell id="Tl4FQw_vcW-S3WmF4InZ-24" value="&lt;p style=&quot;margin:0px;margin-top:4px;text-align:center;&quot;&gt;&lt;span style=&quot;text-wrap-mode: nowrap;&quot;&gt;Chat&lt;/span&gt;&lt;span style=&quot;text-wrap-mode: nowrap; background-color: transparent; color: light-dark(rgb(0, 0, 0), rgb(255, 255, 255));&quot;&gt;Repository&lt;/span&gt;&lt;/p&gt;&lt;hr style=&quot;border-style:solid;&quot;&gt;&lt;pre style=&quot;overflow: auto; padding: 9.144px 13.716px; text-wrap-mode: wrap; word-break: break-all; margin-top: 0px !important; margin-bottom: 0px !important;&quot;&gt;&lt;font face=&quot;Verdana&quot; style=&quot;background-color: light-dark(#ffffff, var(--ge-dark-color, #121212));&quot;&gt;getChat(id: UUID): Chat?&lt;br/&gt;getAllChats(): List&amp;lt;Chat&amp;gt;&lt;br/&gt;getChatsByUser(userId: UUID): List&amp;lt;Chat&amp;gt;&lt;br/&gt;addChat(chat: Chat): UUID&lt;br/&gt;updateChat(chat: Chat): Boolean&lt;br/&gt;deleteChat(id: UUID): Boolean&lt;/font&gt;&lt;/pre&gt;" style="verticalAlign=top;align=left;overflow=fill;html=1;whiteSpace=wrap;fontFamily=Verdana;fontSize=18;" parent="Tl4FQw_vcW-S3WmF4InZ-79" vertex="1">
          <mxGeometry x="1160" y="270" width="560" height="195" as="geometry" />
        </mxCell>
        <mxCell id="Tl4FQw_vcW-S3WmF4InZ-29" style="edgeStyle=orthogonalEdgeStyle;rounded=0;orthogonalLoop=1;jettySize=auto;html=1;entryX=0.5;entryY=1;entryDx=0;entryDy=0;endArrow=block;endFill=0;endSize=10;fontFamily=Verdana;fontSize=18;" parent="Tl4FQw_vcW-S3WmF4InZ-79" source="Tl4FQw_vcW-S3WmF4InZ-24" target="Tl4FQw_vcW-S3WmF4InZ-19" edge="1">
          <mxGeometry relative="1" as="geometry" />
        </mxCell>
        <mxCell id="Tl4FQw_vcW-S3WmF4InZ-20" value="&lt;p style=&quot;margin:0px;margin-top:4px;text-align:center;&quot;&gt;&lt;span style=&quot;text-wrap-mode: nowrap;&quot;&gt;IFile&lt;/span&gt;&lt;span style=&quot;text-wrap-mode: nowrap; background-color: transparent; color: light-dark(rgb(0, 0, 0), rgb(255, 255, 255));&quot;&gt;Repository&lt;/span&gt;&lt;/p&gt;&lt;hr style=&quot;border-style:solid;&quot;&gt;&lt;pre style=&quot;overflow: auto; padding: 9.144px 13.716px; text-wrap-mode: wrap; word-break: break-all; margin-top: 0px !important; margin-bottom: 0px !important;&quot;&gt;&lt;font face=&quot;Verdana&quot;&gt;getFile(id: UUID): File?&lt;br&gt;getAllFiles(): List&amp;lt;File&amp;gt;&lt;br&gt;getFilesByUser(userId: UUID): List&amp;lt;File&amp;gt;&lt;br&gt;addFile(file: File): UUID&lt;br&gt;updateFile(file: File): Boolean&lt;br&gt;deleteFile(id: UUID): Boolean&lt;/font&gt;&lt;/pre&gt;" style="verticalAlign=top;align=left;overflow=fill;html=1;whiteSpace=wrap;fontFamily=Verdana;fontSize=18;" parent="Tl4FQw_vcW-S3WmF4InZ-79" vertex="1">
          <mxGeometry x="1720" y="19" width="460" height="195" as="geometry" />
        </mxCell>
        <mxCell id="Tl4FQw_vcW-S3WmF4InZ-25" value="&lt;p style=&quot;margin:0px;margin-top:4px;text-align:center;&quot;&gt;&lt;span style=&quot;text-wrap-mode: nowrap;&quot;&gt;File&lt;/span&gt;&lt;span style=&quot;text-wrap-mode: nowrap; background-color: transparent; color: light-dark(rgb(0, 0, 0), rgb(255, 255, 255));&quot;&gt;Repository&lt;/span&gt;&lt;/p&gt;&lt;hr style=&quot;border-style:solid;&quot;&gt;&lt;pre style=&quot;overflow: auto; padding: 9.144px 13.716px; text-wrap-mode: wrap; word-break: break-all; margin-top: 0px !important; margin-bottom: 0px !important;&quot;&gt;&lt;font face=&quot;Verdana&quot;&gt;getFile(id: UUID): File?&lt;br/&gt;getAllFiles(): List&amp;lt;File&amp;gt;&lt;br/&gt;getFilesByUser(userId: UUID): List&amp;lt;File&amp;gt;&lt;br/&gt;addFile(file: File): UUID&lt;br/&gt;updateFile(file: File): Boolean&lt;br/&gt;deleteFile(id: UUID): Boolean&lt;/font&gt;&lt;/pre&gt;" style="verticalAlign=top;align=left;overflow=fill;html=1;whiteSpace=wrap;fontFamily=Verdana;fontSize=18;" parent="Tl4FQw_vcW-S3WmF4InZ-79" vertex="1">
          <mxGeometry x="1720" y="270" width="460" height="200" as="geometry" />
        </mxCell>
        <mxCell id="Tl4FQw_vcW-S3WmF4InZ-30" style="edgeStyle=orthogonalEdgeStyle;rounded=0;orthogonalLoop=1;jettySize=auto;html=1;entryX=0.5;entryY=1;entryDx=0;entryDy=0;endArrow=block;endFill=0;endSize=10;fontFamily=Verdana;fontSize=18;" parent="Tl4FQw_vcW-S3WmF4InZ-79" source="Tl4FQw_vcW-S3WmF4InZ-25" target="Tl4FQw_vcW-S3WmF4InZ-20" edge="1">
          <mxGeometry relative="1" as="geometry" />
        </mxCell>
        <mxCell id="Tl4FQw_vcW-S3WmF4InZ-21" value="&lt;p style=&quot;margin:0px;margin-top:4px;text-align:center;&quot;&gt;&lt;span style=&quot;text-wrap-mode: nowrap;&quot;&gt;IBlock&lt;/span&gt;&lt;span style=&quot;text-wrap-mode: nowrap; background-color: transparent; color: light-dark(rgb(0, 0, 0), rgb(255, 255, 255));&quot;&gt;Repository&lt;/span&gt;&lt;/p&gt;&lt;hr style=&quot;border-style:solid;&quot;&gt;&lt;pre style=&quot;overflow: auto; padding: 9.144px 13.716px; text-wrap-mode: wrap; word-break: break-all; margin-top: 0px !important; margin-bottom: 0px !important;&quot;&gt;&lt;font face=&quot;Verdana&quot;&gt;getBlock(id: UUID): Block?&lt;br&gt;getAllBlocks(): List&amp;lt;Block&amp;gt;&lt;br&gt;getBlocksByUser(userId:UUID):List&amp;lt;Block&amp;gt;&lt;br&gt;addBlock(block: Block): UUID&lt;br&gt;updateBlock(block: Block): Boolean&lt;br&gt;deleteBlock(id: UUID): Boolean&lt;/font&gt;&lt;/pre&gt;" style="verticalAlign=top;align=left;overflow=fill;html=1;whiteSpace=wrap;fontFamily=Verdana;fontSize=18;" parent="Tl4FQw_vcW-S3WmF4InZ-79" vertex="1">
          <mxGeometry x="2180" y="19" width="430" height="215" as="geometry" />
        </mxCell>
        <mxCell id="Tl4FQw_vcW-S3WmF4InZ-26" value="&lt;p style=&quot;margin:0px;margin-top:4px;text-align:center;&quot;&gt;&lt;span style=&quot;text-wrap-mode: nowrap;&quot;&gt;Block&lt;/span&gt;&lt;span style=&quot;text-wrap-mode: nowrap; background-color: transparent; color: light-dark(rgb(0, 0, 0), rgb(255, 255, 255));&quot;&gt;Repository&lt;/span&gt;&lt;/p&gt;&lt;hr style=&quot;border-style:solid;&quot;&gt;&lt;pre style=&quot;overflow: auto; padding: 9.144px 13.716px; text-wrap-mode: wrap; word-break: break-all; margin-top: 0px !important; margin-bottom: 0px !important;&quot;&gt;&lt;font face=&quot;Verdana&quot;&gt;getBlock(id: UUID): Block?&lt;br&gt;getAllBlocks(): List&amp;lt;Block&amp;gt;&lt;br&gt;getBlocksByUser(userId:UUID):List&amp;lt;Block&amp;gt;&lt;br&gt;addBlock(block: Block): UUID&lt;br&gt;updateBlock(block: Block): Boolean&lt;br&gt;deleteBlock(id: UUID): Boolean&lt;br&gt;&lt;br&gt;&lt;/font&gt;&lt;/pre&gt;" style="verticalAlign=top;align=left;overflow=fill;html=1;whiteSpace=wrap;fontFamily=Verdana;fontSize=18;" parent="Tl4FQw_vcW-S3WmF4InZ-79" vertex="1">
          <mxGeometry x="2180" y="270" width="430" height="200" as="geometry" />
        </mxCell>
        <mxCell id="Tl4FQw_vcW-S3WmF4InZ-31" style="edgeStyle=orthogonalEdgeStyle;rounded=0;orthogonalLoop=1;jettySize=auto;html=1;entryX=0.5;entryY=1;entryDx=0;entryDy=0;endArrow=block;endFill=0;endSize=10;fontFamily=Verdana;fontSize=18;" parent="Tl4FQw_vcW-S3WmF4InZ-79" source="Tl4FQw_vcW-S3WmF4InZ-26" target="Tl4FQw_vcW-S3WmF4InZ-21" edge="1">
          <mxGeometry relative="1" as="geometry" />
        </mxCell>
        <mxCell id="Tl4FQw_vcW-S3WmF4InZ-63" value="Компонент бизнес-логики" style="swimlane;horizontal=0;whiteSpace=wrap;html=1;fillColor=#D5E8D4;strokeColor=#82b366;swimlaneFillColor=#D5E8D4;fontFamily=Verdana;fontSize=18;" parent="1" vertex="1">
          <mxGeometry x="1760" y="660" width="2620" height="550" as="geometry" />
        </mxCell>
        <mxCell id="Tl4FQw_vcW-S3WmF4InZ-7" value="&lt;p style=&quot;margin:0px;margin-top:4px;text-align:center;&quot;&gt;&lt;span style=&quot;text-wrap-mode: nowrap;&quot;&gt;IUserService&lt;/span&gt;&lt;/p&gt;&lt;hr style=&quot;border-style:solid;&quot;&gt;&lt;pre style=&quot;overflow: auto; padding: 9.144px 13.716px; text-wrap-mode: wrap; word-break: break-all; margin-top: 0px !important; margin-bottom: 0px !important;&quot;&gt;&lt;font face=&quot;Verdana&quot;&gt;register(username: String, role: UserRole): UUID&lt;br&gt;login(username: String): UUID?&lt;br&gt;findByUserName(username: String): User?&lt;br&gt;getUser(id: UUID): User?&lt;br&gt;getAllUsers(): List&amp;lt;User&amp;gt;&lt;br&gt;updateUser(id: UUID, username: String): Boolean&lt;br&gt;updateUserRole(id: UUID, newRole: UserRole): BooleandeleteUser(id: UUID): Boolean&lt;/font&gt;&lt;/pre&gt;" style="verticalAlign=top;align=left;overflow=fill;html=1;whiteSpace=wrap;fontFamily=Verdana;fontSize=18;" parent="Tl4FQw_vcW-S3WmF4InZ-63" vertex="1">
          <mxGeometry x="30" y="25" width="540" height="240" as="geometry" />
        </mxCell>
        <mxCell id="Tl4FQw_vcW-S3WmF4InZ-41" style="edgeStyle=orthogonalEdgeStyle;rounded=0;orthogonalLoop=1;jettySize=auto;html=1;entryX=0.5;entryY=1;entryDx=0;entryDy=0;endArrow=block;endFill=0;endSize=10;fontFamily=Verdana;fontSize=18;" parent="Tl4FQw_vcW-S3WmF4InZ-63" source="Tl4FQw_vcW-S3WmF4InZ-12" target="Tl4FQw_vcW-S3WmF4InZ-7" edge="1">
          <mxGeometry relative="1" as="geometry" />
        </mxCell>
        <mxCell id="Tl4FQw_vcW-S3WmF4InZ-8" value="&lt;p style=&quot;margin:0px;margin-top:4px;text-align:center;&quot;&gt;&lt;span style=&quot;text-wrap-mode: nowrap;&quot;&gt;IMessage&lt;/span&gt;&lt;span style=&quot;text-wrap-mode: nowrap; background-color: transparent; color: light-dark(rgb(0, 0, 0), rgb(255, 255, 255));&quot;&gt;Service&lt;/span&gt;&lt;/p&gt;&lt;hr style=&quot;border-style:solid;&quot;&gt;&lt;pre style=&quot;overflow: auto; padding: 9.144px 13.716px; text-wrap-mode: wrap; word-break: break-all; margin-top: 0px !important; margin-bottom: 0px !important;&quot;&gt;&lt;font face=&quot;Verdana&quot;&gt;sendMessage(senderId: UUID, chatId: UUID, content: String, fileId: UUID?): UUID&lt;br&gt;getMessage(id: UUID): Message?&lt;br&gt;getChatMessages(chatId: UUID): List&amp;lt;Message&amp;gt;&lt;br&gt;getLastMessage(chatId: UUID): Message?&lt;br&gt;editMessage(id: UUID, newContent: String): Boolean&lt;br&gt;getMessageHistory(messageId: UUID):List&amp;lt;MessageHistory&amp;gt;&lt;br&gt;deleteMessage(id: UUID): Boolean&lt;/font&gt;&lt;/pre&gt;" style="verticalAlign=top;align=left;overflow=fill;html=1;whiteSpace=wrap;fontFamily=Verdana;fontSize=18;" parent="Tl4FQw_vcW-S3WmF4InZ-63" vertex="1">
          <mxGeometry x="570" y="25" width="590" height="245" as="geometry" />
        </mxCell>
        <mxCell id="Tl4FQw_vcW-S3WmF4InZ-53" value="Компонент реализации UI" style="swimlane;horizontal=0;whiteSpace=wrap;html=1;fillColor=#DAE8FC;strokeColor=#6c8ebf;swimlaneFillColor=#DAE8FC;fontFamily=Verdana;fontSize=18;" parent="Tl4FQw_vcW-S3WmF4InZ-63" vertex="1">
          <mxGeometry y="-270" width="2620" height="280" as="geometry" />
        </mxCell>
        <mxCell id="Tl4FQw_vcW-S3WmF4InZ-3" value="&lt;p style=&quot;margin:0px;margin-top:4px;text-align:center;&quot;&gt;&lt;span style=&quot;text-wrap-mode: nowrap;&quot;&gt;MessageController&lt;/span&gt;&lt;/p&gt;&lt;hr style=&quot;border-style:solid;&quot;&gt;&lt;p style=&quot;margin:0px;margin-left:4px;&quot;&gt;send(sender: UUID, chat: UUID, text: String, file: UUID?): UUID&lt;/p&gt;&lt;p style=&quot;margin:0px;margin-left:4px;&quot;&gt;getHistory(chat: UUID, limit: Int, offset: Int): List&amp;lt;Message&amp;gt;&lt;/p&gt;&lt;p style=&quot;margin:0px;margin-left:4px;&quot;&gt;edit(msgId: UUID, newText: String): Boolean&lt;/p&gt;&lt;p style=&quot;margin:0px;margin-left:4px;&quot;&gt;delete(msgId: UUID): Boolean&lt;/p&gt;&lt;p style=&quot;margin:0px;margin-left:4px;&quot;&gt;attach(msgId: UUID, file: UUID): Boolean&lt;/p&gt;&lt;p style=&quot;margin:0px;margin-left:4px;&quot;&gt;markRead(msgId: UUID): Boolean&lt;/p&gt;&lt;p style=&quot;margin:0px;margin-left:4px;&quot;&gt;getUnreadCount(user: UUID): Int&lt;/p&gt;&lt;p style=&quot;margin:0px;margin-left:4px;&quot;&gt;searchInChat(chat: UUID, query: String): List&amp;lt;Message&amp;gt;&amp;nbsp;&amp;nbsp;&lt;/p&gt;" style="verticalAlign=top;align=left;overflow=fill;html=1;whiteSpace=wrap;fontFamily=Verdana;fontSize=18;" parent="Tl4FQw_vcW-S3WmF4InZ-53" vertex="1">
          <mxGeometry x="570" y="27.5" width="590" height="242.5" as="geometry" />
        </mxCell>
        <mxCell id="Tl4FQw_vcW-S3WmF4InZ-4" value="&lt;p style=&quot;margin:0px;margin-top:4px;text-align:center;&quot;&gt;&lt;span style=&quot;text-wrap-mode: nowrap;&quot;&gt;ChatController&lt;/span&gt;&lt;/p&gt;&lt;hr style=&quot;border-style:solid;&quot;&gt;&lt;p style=&quot;margin:0px;margin-left:4px;&quot;&gt;create(owner: UUID, name: String, isGroup: Boolean): UUID&lt;/p&gt;&lt;p style=&quot;margin:0px;margin-left:4px;&quot;&gt;delete(chat: UUID): Boolean&lt;/p&gt;&lt;p style=&quot;margin:0px;margin-left:4px;&quot;&gt;addMember(chat: UUID, user: UUID): Boolean&lt;/p&gt;&lt;p style=&quot;margin:0px;margin-left:4px;&quot;&gt;removeMember(chat: UUID, user: UUID): Boolean&lt;/p&gt;&lt;p style=&quot;margin:0px;margin-left:4px;&quot;&gt;rename(chat: UUID, newName: String): Boolean&lt;/p&gt;&lt;p style=&quot;margin:0px;margin-left:4px;&quot;&gt;getMembers(chat: UUID): List&amp;lt;UUID&amp;gt;&lt;/p&gt;&lt;p style=&quot;margin:0px;margin-left:4px;&quot;&gt;getChatInfo(chat: UUID): Chat?&lt;/p&gt;&lt;p style=&quot;margin:0px;margin-left:4px;&quot;&gt;leaveChat(chat: UUID, user: UUID): Boolean&lt;/p&gt;&lt;p style=&quot;margin:0px;margin-left:4px;&quot;&gt;setAdmin(chat: UUID, user: UUID): Boolean&lt;/p&gt;&lt;div&gt;&lt;br&gt;&lt;/div&gt;" style="verticalAlign=top;align=left;overflow=fill;html=1;whiteSpace=wrap;fontFamily=Verdana;fontSize=18;" parent="Tl4FQw_vcW-S3WmF4InZ-53" vertex="1">
          <mxGeometry x="1160" y="27.5" width="560" height="242.5" as="geometry" />
        </mxCell>
        <mxCell id="Tl4FQw_vcW-S3WmF4InZ-2" value="&lt;p style=&quot;margin:0px;margin-top:4px;text-align:center;&quot;&gt;&lt;span style=&quot;text-wrap-mode: nowrap;&quot;&gt;UserController&lt;/span&gt;&lt;/p&gt;&lt;hr style=&quot;border-style:solid;&quot;&gt;&lt;p style=&quot;margin:0px;margin-left:4px;&quot;&gt;register(login: String, pass: String)&amp;nbsp;&lt;/p&gt;&lt;p style=&quot;margin:0px;margin-left:4px;&quot;&gt;login(login: String, pass: String): UUID?&amp;nbsp; &amp;nbsp; &amp;nbsp; &amp;nbsp; &amp;nbsp;&lt;/p&gt;&lt;p style=&quot;margin:0px;margin-left:4px;&quot;&gt;updateProfile(id: UUID, name: String?, status: String?)&amp;nbsp;&amp;nbsp;&lt;/p&gt;&lt;p style=&quot;margin:0px;margin-left:4px;&quot;&gt;changePass(id: UUID, oldPass: String, newPass: String)&lt;/p&gt;&lt;p style=&quot;margin:0px;margin-left:4px;&quot;&gt;deleteUser(id: UUID)&lt;/p&gt;&lt;p style=&quot;margin:0px;margin-left:4px;&quot;&gt;getUserProfile(id: UUID): User?&lt;/p&gt;&lt;p style=&quot;margin:0px;margin-left:4px;&quot;&gt;searchUsers(query: String): List&amp;lt;User&amp;gt;&lt;/p&gt;&lt;p style=&quot;margin:0px;margin-left:4px;&quot;&gt;getOnlineStatus(id: UUID): Boolean&lt;/p&gt;" style="verticalAlign=top;align=left;overflow=fill;html=1;whiteSpace=wrap;fontFamily=Verdana;fontSize=18;" parent="Tl4FQw_vcW-S3WmF4InZ-53" vertex="1">
          <mxGeometry x="30" y="27.5" width="540" height="230" as="geometry" />
        </mxCell>
        <mxCell id="Tl4FQw_vcW-S3WmF4InZ-5" value="&lt;p style=&quot;margin:0px;margin-top:4px;text-align:center;&quot;&gt;&lt;span style=&quot;text-wrap-mode: nowrap;&quot;&gt;FileController&lt;/span&gt;&lt;/p&gt;&lt;hr style=&quot;border-style:solid;&quot;&gt;&lt;p style=&quot;margin:0px;margin-left:4px;&quot;&gt;upload(user: UUID, name: String, path: String): UUID&amp;nbsp;&amp;nbsp;&lt;/p&gt;&lt;p style=&quot;margin:0px;margin-left:4px;&quot;&gt;download(id: UUID): File?&amp;nbsp; &amp;nbsp; &amp;nbsp; &amp;nbsp; &amp;nbsp; &amp;nbsp; &amp;nbsp; &amp;nbsp; &amp;nbsp; &amp;nbsp;&lt;/p&gt;&lt;p style=&quot;margin:0px;margin-left:4px;&quot;&gt;delete(id: UUID): Boolean&amp;nbsp; &amp;nbsp; &amp;nbsp; &amp;nbsp; &amp;nbsp; &amp;nbsp; &amp;nbsp; &amp;nbsp; &amp;nbsp; &amp;nbsp;&lt;/p&gt;&lt;p style=&quot;margin:0px;margin-left:4px;&quot;&gt;getFileInfo(id: UUID): File?&amp;nbsp; &amp;nbsp; &amp;nbsp; &amp;nbsp; &amp;nbsp; &amp;nbsp; &amp;nbsp; &amp;nbsp;&amp;nbsp;&lt;/p&gt;&lt;p style=&quot;margin:0px;margin-left:4px;&quot;&gt;getUserFiles(user: UUID): List&amp;lt;File&amp;gt;&amp;nbsp; &amp;nbsp; &amp;nbsp; &amp;nbsp;&amp;nbsp;&lt;/p&gt;&lt;p style=&quot;margin:0px;margin-left:4px;&quot;&gt;getChatFiles(chat: UUID): List&amp;lt;File&amp;gt;&amp;nbsp; &amp;nbsp; &amp;nbsp; &amp;nbsp;&amp;nbsp;&lt;/p&gt;" style="verticalAlign=top;align=left;overflow=fill;html=1;whiteSpace=wrap;fontFamily=Verdana;fontSize=18;" parent="Tl4FQw_vcW-S3WmF4InZ-53" vertex="1">
          <mxGeometry x="1720" y="27.5" width="460" height="202.5" as="geometry" />
        </mxCell>
        <mxCell id="Tl4FQw_vcW-S3WmF4InZ-6" value="&lt;p style=&quot;margin:0px;margin-top:4px;text-align:center;&quot;&gt;&lt;span style=&quot;text-wrap-mode: nowrap;&quot;&gt;BlockController&lt;/span&gt;&lt;/p&gt;&lt;hr style=&quot;border-style:solid;&quot;&gt;&lt;p style=&quot;margin:0px;margin-left:4px;&quot;&gt;block(by: UUID, user: UUID, reason: String?): UUID&lt;/p&gt;&lt;p style=&quot;margin:0px;margin-left:4px;&quot;&gt;unblock(id: UUID): Boolean&lt;/p&gt;&lt;p style=&quot;margin:0px;margin-left:4px;&quot;&gt;getBlocked(user: UUID): List&amp;lt;Block&amp;gt;&lt;/p&gt;&lt;p style=&quot;margin:0px;margin-left:4px;&quot;&gt;isBlocked(by: UUID, user: UUID): Boolean&lt;/p&gt;&lt;p style=&quot;margin:0px;margin-left:4px;&quot;&gt;getBlockReason(id: UUID): String?&lt;/p&gt;" style="verticalAlign=top;align=left;overflow=fill;html=1;whiteSpace=wrap;fontFamily=Verdana;fontSize=18;" parent="Tl4FQw_vcW-S3WmF4InZ-53" vertex="1">
          <mxGeometry x="2180" y="27.5" width="430" height="182.5" as="geometry" />
        </mxCell>
        <mxCell id="Tl4FQw_vcW-S3WmF4InZ-10" value="&lt;p style=&quot;margin:0px;margin-top:4px;text-align:center;&quot;&gt;&lt;span style=&quot;text-wrap-mode: nowrap;&quot;&gt;IFile&lt;/span&gt;&lt;span style=&quot;text-wrap-mode: nowrap; background-color: transparent; color: light-dark(rgb(0, 0, 0), rgb(255, 255, 255));&quot;&gt;Service&lt;/span&gt;&lt;/p&gt;&lt;hr style=&quot;border-style:solid;&quot;&gt;&lt;pre style=&quot;overflow: auto; padding: 9.144px 13.716px; text-wrap-mode: wrap; word-break: break-all; margin-top: 0px !important; margin-bottom: 0px !important;&quot;&gt;&lt;font face=&quot;Verdana&quot;&gt;uploadFile(name: String, type: String, path: String, uploadedBy: UUID): UUID&lt;br/&gt;getFile(id: UUID): File?&lt;br/&gt;getUserFiles(userId: UUID): List&amp;lt;File&amp;gt;&lt;br/&gt;deleteFile(id: UUID): Boolean&lt;/font&gt;&lt;/pre&gt;" style="verticalAlign=top;align=left;overflow=fill;html=1;whiteSpace=wrap;fontFamily=Verdana;fontSize=18;" parent="Tl4FQw_vcW-S3WmF4InZ-53" vertex="1">
          <mxGeometry x="1720" y="295" width="460" height="190" as="geometry" />
        </mxCell>
        <mxCell id="Tl4FQw_vcW-S3WmF4InZ-45" style="edgeStyle=orthogonalEdgeStyle;rounded=0;orthogonalLoop=1;jettySize=auto;html=1;entryX=0.5;entryY=1;entryDx=0;entryDy=0;endArrow=diamondThin;endFill=0;endSize=10;fontFamily=Verdana;fontSize=18;" parent="Tl4FQw_vcW-S3WmF4InZ-53" source="Tl4FQw_vcW-S3WmF4InZ-10" target="Tl4FQw_vcW-S3WmF4InZ-5" edge="1">
          <mxGeometry relative="1" as="geometry" />
        </mxCell>
        <mxCell id="Tl4FQw_vcW-S3WmF4InZ-11" value="&lt;p style=&quot;margin:0px;margin-top:4px;text-align:center;&quot;&gt;&lt;span style=&quot;text-wrap-mode: nowrap;&quot;&gt;IBlock&lt;/span&gt;&lt;span style=&quot;text-wrap-mode: nowrap; background-color: transparent; color: light-dark(rgb(0, 0, 0), rgb(255, 255, 255));&quot;&gt;Service&lt;/span&gt;&lt;/p&gt;&lt;hr style=&quot;border-style:solid;&quot;&gt;&lt;pre style=&quot;overflow: auto; padding: 9.144px 13.716px; text-wrap-mode: wrap; word-break: break-all; margin-top: 0px !important; margin-bottom: 0px !important;&quot;&gt;&lt;font face=&quot;Verdana&quot;&gt;blockUser(blockerId: UUID, blockedUserId: UUID, reason: String?): UUID&lt;br&gt;getBlock(id: UUID): Block?&lt;br&gt;getUserBlocks(userId: UUID): List&amp;lt;Block&amp;gt;&lt;br&gt;deleteBlock(id: UUID): Boolean&lt;br&gt;unblockUser(blockerId: UUID, blockedUserId: UUID): Boolean&lt;/font&gt;&lt;/pre&gt;" style="verticalAlign=top;align=left;overflow=fill;html=1;whiteSpace=wrap;fontFamily=Verdana;fontSize=18;" parent="Tl4FQw_vcW-S3WmF4InZ-53" vertex="1">
          <mxGeometry x="2180" y="295" width="430" height="215" as="geometry" />
        </mxCell>
        <mxCell id="Tl4FQw_vcW-S3WmF4InZ-46" style="edgeStyle=orthogonalEdgeStyle;rounded=0;orthogonalLoop=1;jettySize=auto;html=1;entryX=0.5;entryY=1;entryDx=0;entryDy=0;endArrow=diamondThin;endFill=0;endSize=10;fontFamily=Verdana;fontSize=18;" parent="Tl4FQw_vcW-S3WmF4InZ-53" source="Tl4FQw_vcW-S3WmF4InZ-11" target="Tl4FQw_vcW-S3WmF4InZ-6" edge="1">
          <mxGeometry relative="1" as="geometry" />
        </mxCell>
        <mxCell id="Tl4FQw_vcW-S3WmF4InZ-40" style="edgeStyle=orthogonalEdgeStyle;rounded=0;orthogonalLoop=1;jettySize=auto;html=1;entryX=0.5;entryY=1;entryDx=0;entryDy=0;endArrow=block;endFill=0;endSize=10;fontFamily=Verdana;fontSize=18;" parent="Tl4FQw_vcW-S3WmF4InZ-63" source="Tl4FQw_vcW-S3WmF4InZ-13" target="Tl4FQw_vcW-S3WmF4InZ-8" edge="1">
          <mxGeometry relative="1" as="geometry" />
        </mxCell>
        <mxCell id="Tl4FQw_vcW-S3WmF4InZ-43" style="edgeStyle=orthogonalEdgeStyle;rounded=0;orthogonalLoop=1;jettySize=auto;html=1;entryX=0.5;entryY=1;entryDx=0;entryDy=0;endArrow=diamondThin;endFill=0;endSize=10;fontFamily=Verdana;fontSize=18;" parent="Tl4FQw_vcW-S3WmF4InZ-63" source="Tl4FQw_vcW-S3WmF4InZ-8" target="Tl4FQw_vcW-S3WmF4InZ-3" edge="1">
          <mxGeometry relative="1" as="geometry" />
        </mxCell>
        <mxCell id="Tl4FQw_vcW-S3WmF4InZ-42" style="edgeStyle=orthogonalEdgeStyle;rounded=0;orthogonalLoop=1;jettySize=auto;html=1;entryX=0.5;entryY=1;entryDx=0;entryDy=0;endArrow=diamondThin;endFill=0;endSize=10;fontFamily=Verdana;fontSize=18;" parent="Tl4FQw_vcW-S3WmF4InZ-63" source="Tl4FQw_vcW-S3WmF4InZ-7" target="Tl4FQw_vcW-S3WmF4InZ-2" edge="1">
          <mxGeometry relative="1" as="geometry" />
        </mxCell>
        <mxCell id="Tl4FQw_vcW-S3WmF4InZ-9" value="&lt;p style=&quot;margin:0px;margin-top:4px;text-align:center;&quot;&gt;&lt;span style=&quot;text-wrap-mode: nowrap;&quot;&gt;IChat&lt;/span&gt;&lt;span style=&quot;text-wrap-mode: nowrap; background-color: transparent; color: light-dark(rgb(0, 0, 0), rgb(255, 255, 255));&quot;&gt;Service&lt;/span&gt;&lt;/p&gt;&lt;hr style=&quot;border-style:solid;&quot;&gt;&lt;pre style=&quot;overflow: auto; padding: 9.144px 13.716px; text-wrap-mode: wrap; word-break: break-all; margin-top: 0px !important; margin-bottom: 0px !important;&quot;&gt;&lt;font face=&quot;Verdana&quot;&gt;createChat(name: String, creatorId: UUID, isGroupChat: Boolean, companionId: UUID?): UUID&lt;br&gt;getChat(id: UUID): Chat?&lt;br&gt;getUserChats(userId: UUID): List&amp;lt;Chat&amp;gt;&lt;br&gt;updateChat(id: UUID, name: String): Boolean&lt;br&gt;deleteChat(id: UUID): Boolean&lt;/font&gt;&lt;/pre&gt;" style="verticalAlign=top;align=left;overflow=fill;html=1;whiteSpace=wrap;fontFamily=Verdana;fontSize=18;" parent="Tl4FQw_vcW-S3WmF4InZ-63" vertex="1">
          <mxGeometry x="1160" y="25" width="560" height="205" as="geometry" />
        </mxCell>
        <mxCell id="Tl4FQw_vcW-S3WmF4InZ-44" style="edgeStyle=orthogonalEdgeStyle;rounded=0;orthogonalLoop=1;jettySize=auto;html=1;entryX=0.5;entryY=1;entryDx=0;entryDy=0;endArrow=diamondThin;endFill=0;endSize=10;fontFamily=Verdana;fontSize=18;" parent="Tl4FQw_vcW-S3WmF4InZ-63" source="Tl4FQw_vcW-S3WmF4InZ-9" target="Tl4FQw_vcW-S3WmF4InZ-4" edge="1">
          <mxGeometry relative="1" as="geometry" />
        </mxCell>
        <mxCell id="Tl4FQw_vcW-S3WmF4InZ-37" style="edgeStyle=orthogonalEdgeStyle;rounded=0;orthogonalLoop=1;jettySize=auto;html=1;entryX=0.5;entryY=1;entryDx=0;entryDy=0;endArrow=block;endFill=0;endSize=10;fontFamily=Verdana;fontSize=18;" parent="Tl4FQw_vcW-S3WmF4InZ-63" source="Tl4FQw_vcW-S3WmF4InZ-16" target="Tl4FQw_vcW-S3WmF4InZ-11" edge="1">
          <mxGeometry relative="1" as="geometry" />
        </mxCell>
        <mxCell id="Tl4FQw_vcW-S3WmF4InZ-12" value="&lt;p style=&quot;margin:0px;margin-top:4px;text-align:center;&quot;&gt;&lt;span style=&quot;text-wrap-mode: nowrap;&quot;&gt;&lt;font&gt;UserService&lt;/font&gt;&lt;/span&gt;&lt;/p&gt;&lt;hr style=&quot;border-style:solid;&quot;&gt;&lt;pre style=&quot;overflow: auto; padding: 9.144px 13.716px; text-wrap-mode: wrap; word-break: break-all; margin-top: 0px !important; margin-bottom: 0px !important;&quot;&gt;&lt;font face=&quot;Verdana&quot;&gt;register(username: String, role: UserRole): UUID&lt;br/&gt;login(username: String): UUID?&lt;br/&gt;findByUserName(username: String): User?&lt;br/&gt;getUser(id: UUID): User?&lt;br/&gt;getAllUsers(): List&amp;lt;User&amp;gt;&lt;br/&gt;updateUser(id: UUID, username: String): Boolean&lt;br/&gt;updateUserRole(id: UUID, newRole: UserRole): Boolean&lt;br/&gt;deleteUser(id: UUID): Boolean&lt;/font&gt;&lt;/pre&gt;" style="verticalAlign=top;align=left;overflow=fill;html=1;whiteSpace=wrap;fontFamily=Verdana;fontSize=18;" parent="Tl4FQw_vcW-S3WmF4InZ-63" vertex="1">
          <mxGeometry x="30" y="300" width="540" height="240" as="geometry" />
        </mxCell>
        <mxCell id="Tl4FQw_vcW-S3WmF4InZ-13" value="&lt;p style=&quot;margin:0px;margin-top:4px;text-align:center;&quot;&gt;&lt;span style=&quot;text-wrap-mode: nowrap;&quot;&gt;Message&lt;/span&gt;&lt;span style=&quot;text-wrap-mode: nowrap; background-color: transparent; color: light-dark(rgb(0, 0, 0), rgb(255, 255, 255));&quot;&gt;Service&lt;/span&gt;&lt;/p&gt;&lt;hr style=&quot;border-style:solid;&quot;&gt;&lt;pre style=&quot;overflow: auto; padding: 9.144px 13.716px; text-wrap-mode: wrap; word-break: break-all; margin-top: 0px !important; margin-bottom: 0px !important;&quot;&gt;&lt;font face=&quot;Verdana&quot;&gt;sendMessage(senderId: UUID, chatId: UUID, content: String, fileId: UUID?): UUID&lt;br&gt;getMessage(id: UUID): Message?&lt;br&gt;getChatMessages(chatId: UUID): List&amp;lt;Message&amp;gt;&lt;br&gt;getLastMessage(chatId: UUID): Message?&lt;br&gt;editMessage(id: UUID, newContent: String): Boolean&lt;br&gt;getMessageHistory(messageId: UUID):List&amp;lt;MessageHistory&amp;gt;&lt;br&gt;deleteMessage(id: UUID): Boolean&lt;/font&gt;&lt;/pre&gt;" style="verticalAlign=top;align=left;overflow=fill;html=1;whiteSpace=wrap;fontFamily=Verdana;fontSize=18;" parent="Tl4FQw_vcW-S3WmF4InZ-63" vertex="1">
          <mxGeometry x="570" y="300" width="590" height="240" as="geometry" />
        </mxCell>
        <mxCell id="Tl4FQw_vcW-S3WmF4InZ-14" value="&lt;p style=&quot;margin:0px;margin-top:4px;text-align:center;&quot;&gt;&lt;span style=&quot;text-wrap-mode: nowrap;&quot;&gt;Chat&lt;/span&gt;&lt;span style=&quot;text-wrap-mode: nowrap; background-color: transparent; color: light-dark(rgb(0, 0, 0), rgb(255, 255, 255));&quot;&gt;Service&lt;/span&gt;&lt;/p&gt;&lt;hr style=&quot;border-style:solid;&quot;&gt;&lt;pre style=&quot;overflow: auto; padding: 9.144px 13.716px; text-wrap-mode: wrap; word-break: break-all; margin-top: 0px !important; margin-bottom: 0px !important;&quot;&gt;&lt;font face=&quot;Verdana&quot;&gt;createChat(name: String, creatorId: UUID, isGroupChat: Boolean, companionId: UUID?): UUID&lt;br/&gt;getChat(id: UUID): Chat?&lt;br/&gt;getUserChats(userId: UUID): List&amp;lt;Chat&amp;gt;&lt;br/&gt;updateChat(id: UUID, name: String): Boolean&lt;br/&gt;deleteChat(id: UUID): Boolean&lt;/font&gt;&lt;/pre&gt;" style="verticalAlign=top;align=left;overflow=fill;html=1;whiteSpace=wrap;fontFamily=Verdana;fontSize=18;" parent="Tl4FQw_vcW-S3WmF4InZ-63" vertex="1">
          <mxGeometry x="1160" y="300" width="560" height="205" as="geometry" />
        </mxCell>
        <mxCell id="Tl4FQw_vcW-S3WmF4InZ-39" style="edgeStyle=orthogonalEdgeStyle;rounded=0;orthogonalLoop=1;jettySize=auto;html=1;entryX=0.5;entryY=1;entryDx=0;entryDy=0;endArrow=block;endFill=0;endSize=10;fontFamily=Verdana;fontSize=18;" parent="Tl4FQw_vcW-S3WmF4InZ-63" source="Tl4FQw_vcW-S3WmF4InZ-14" target="Tl4FQw_vcW-S3WmF4InZ-9" edge="1">
          <mxGeometry relative="1" as="geometry" />
        </mxCell>
        <mxCell id="Tl4FQw_vcW-S3WmF4InZ-15" value="&lt;p style=&quot;margin:0px;margin-top:4px;text-align:center;&quot;&gt;&lt;font face=&quot;Verdana&quot;&gt;&lt;span style=&quot;text-wrap-mode: nowrap;&quot;&gt;File&lt;/span&gt;&lt;span style=&quot;text-wrap-mode: nowrap; background-color: transparent;&quot;&gt;Service&lt;/span&gt;&lt;/font&gt;&lt;/p&gt;&lt;hr style=&quot;border-style:solid;&quot;&gt;&lt;pre style=&quot;overflow: auto; padding: 9.144px 13.716px; text-wrap-mode: wrap; word-break: break-all; margin-top: 0px !important; margin-bottom: 0px !important;&quot;&gt;&lt;font face=&quot;Verdana&quot;&gt;uploadFile(name: String, type: String, path: String, uploadedBy: UUID): UUID&lt;br/&gt;getFile(id: UUID): File?&lt;br/&gt;getUserFiles(userId: UUID): List&amp;lt;File&amp;gt;&lt;br/&gt;deleteFile(id: UUID): Boolean&lt;/font&gt;&lt;/pre&gt;" style="verticalAlign=top;align=left;overflow=fill;html=1;whiteSpace=wrap;fontFamily=Verdana;fontSize=18;" parent="Tl4FQw_vcW-S3WmF4InZ-63" vertex="1">
          <mxGeometry x="1720" y="300" width="460" height="190" as="geometry" />
        </mxCell>
        <mxCell id="Tl4FQw_vcW-S3WmF4InZ-38" style="edgeStyle=orthogonalEdgeStyle;rounded=0;orthogonalLoop=1;jettySize=auto;html=1;entryX=0.5;entryY=1;entryDx=0;entryDy=0;endArrow=block;endFill=0;endSize=10;fontFamily=Verdana;fontSize=18;" parent="Tl4FQw_vcW-S3WmF4InZ-63" source="Tl4FQw_vcW-S3WmF4InZ-15" target="Tl4FQw_vcW-S3WmF4InZ-10" edge="1">
          <mxGeometry relative="1" as="geometry" />
        </mxCell>
        <mxCell id="Tl4FQw_vcW-S3WmF4InZ-16" value="&lt;p style=&quot;margin:0px;margin-top:4px;text-align:center;&quot;&gt;&lt;font&gt;&lt;span style=&quot;text-wrap-mode: nowrap;&quot;&gt;Block&lt;/span&gt;&lt;span style=&quot;text-wrap-mode: nowrap; background-color: transparent;&quot;&gt;Service&lt;/span&gt;&lt;/font&gt;&lt;/p&gt;&lt;hr style=&quot;border-style:solid;&quot;&gt;&lt;pre style=&quot;overflow: auto; padding: 9.144px 13.716px; text-wrap-mode: wrap; word-break: break-all; margin-top: 0px !important; margin-bottom: 0px !important;&quot;&gt;&lt;font&gt;&lt;font face=&quot;Verdana&quot;&gt;blockUser(blockerId: UUID, blockedUserId: UUID, reason: String?): UUID&lt;br&gt;getBlock(id: UUID): Block?&lt;br&gt;getUserBlocks(userId: UUID): List&amp;lt;Block&amp;gt;&lt;br&gt;deleteBlock(id: UUID): Boolean&lt;br&gt;unblockUser(blockerId: UUID, blockedUserId: UUID): Boolean&lt;/font&gt;&lt;/font&gt;&lt;/pre&gt;" style="verticalAlign=top;align=left;overflow=fill;html=1;whiteSpace=wrap;fontFamily=Verdana;fontSize=18;" parent="Tl4FQw_vcW-S3WmF4InZ-63" vertex="1">
          <mxGeometry x="2180" y="300" width="430" height="220" as="geometry" />
        </mxCell>
        <mxCell id="Tl4FQw_vcW-S3WmF4InZ-32" style="edgeStyle=orthogonalEdgeStyle;rounded=0;orthogonalLoop=1;jettySize=auto;html=1;entryX=0.5;entryY=1;entryDx=0;entryDy=0;endArrow=diamondThin;endFill=0;endSize=10;fontFamily=Verdana;fontSize=18;" parent="1" source="Tl4FQw_vcW-S3WmF4InZ-17" target="Tl4FQw_vcW-S3WmF4InZ-12" edge="1">
          <mxGeometry relative="1" as="geometry">
            <mxPoint x="2050" y="1160" as="targetPoint" />
          </mxGeometry>
        </mxCell>
        <mxCell id="Tl4FQw_vcW-S3WmF4InZ-33" style="edgeStyle=orthogonalEdgeStyle;rounded=0;orthogonalLoop=1;jettySize=auto;html=1;entryX=0.5;entryY=1;entryDx=0;entryDy=0;endArrow=diamondThin;endFill=0;endSize=10;fontFamily=Verdana;fontSize=18;" parent="1" source="Tl4FQw_vcW-S3WmF4InZ-18" target="Tl4FQw_vcW-S3WmF4InZ-13" edge="1">
          <mxGeometry relative="1" as="geometry" />
        </mxCell>
        <mxCell id="Tl4FQw_vcW-S3WmF4InZ-34" style="edgeStyle=orthogonalEdgeStyle;rounded=0;orthogonalLoop=1;jettySize=auto;html=1;entryX=0.5;entryY=1;entryDx=0;entryDy=0;endArrow=diamondThin;endFill=0;endSize=10;fontFamily=Verdana;fontSize=18;" parent="1" source="Tl4FQw_vcW-S3WmF4InZ-19" target="Tl4FQw_vcW-S3WmF4InZ-14" edge="1">
          <mxGeometry relative="1" as="geometry" />
        </mxCell>
        <mxCell id="Tl4FQw_vcW-S3WmF4InZ-35" style="edgeStyle=orthogonalEdgeStyle;rounded=0;orthogonalLoop=1;jettySize=auto;html=1;entryX=0.5;entryY=1;entryDx=0;entryDy=0;endArrow=diamondThin;endFill=0;endSize=10;fontFamily=Verdana;fontSize=18;" parent="1" source="Tl4FQw_vcW-S3WmF4InZ-20" target="Tl4FQw_vcW-S3WmF4InZ-15" edge="1">
          <mxGeometry relative="1" as="geometry" />
        </mxCell>
        <mxCell id="Tl4FQw_vcW-S3WmF4InZ-36" style="edgeStyle=orthogonalEdgeStyle;rounded=0;orthogonalLoop=1;jettySize=auto;html=1;entryX=0.5;entryY=1;entryDx=0;entryDy=0;endArrow=diamondThin;endFill=0;endSize=10;fontFamily=Verdana;fontSize=18;" parent="1" source="Tl4FQw_vcW-S3WmF4InZ-21" target="Tl4FQw_vcW-S3WmF4InZ-16" edge="1">
          <mxGeometry relative="1" as="geometry" />
        </mxCell>
        <mxCell id="Tl4FQw_vcW-S3WmF4InZ-47" value="&lt;font&gt;App&lt;/font&gt;" style="html=1;whiteSpace=wrap;fontFamily=Verdana;fontSize=18;" parent="1" vertex="1">
          <mxGeometry x="3065" y="310" width="270" height="50" as="geometry" />
        </mxCell>
        <mxCell id="Tl4FQw_vcW-S3WmF4InZ-49" style="edgeStyle=orthogonalEdgeStyle;rounded=0;orthogonalLoop=1;jettySize=auto;html=1;entryX=0.5;entryY=1;entryDx=0;entryDy=0;fontFamily=Verdana;fontSize=18;" parent="1" source="Tl4FQw_vcW-S3WmF4InZ-3" target="Tl4FQw_vcW-S3WmF4InZ-47" edge="1">
          <mxGeometry relative="1" as="geometry">
            <Array as="points">
              <mxPoint x="2695" y="380" />
              <mxPoint x="3200" y="380" />
            </Array>
          </mxGeometry>
        </mxCell>
        <mxCell id="Tl4FQw_vcW-S3WmF4InZ-50" style="edgeStyle=orthogonalEdgeStyle;rounded=0;orthogonalLoop=1;jettySize=auto;html=1;entryX=0.5;entryY=1;entryDx=0;entryDy=0;fontFamily=Verdana;fontSize=18;" parent="1" source="Tl4FQw_vcW-S3WmF4InZ-4" target="Tl4FQw_vcW-S3WmF4InZ-47" edge="1">
          <mxGeometry relative="1" as="geometry" />
        </mxCell>
        <mxCell id="Tl4FQw_vcW-S3WmF4InZ-51" style="edgeStyle=orthogonalEdgeStyle;rounded=0;orthogonalLoop=1;jettySize=auto;html=1;entryX=0.5;entryY=1;entryDx=0;entryDy=0;fontFamily=Verdana;fontSize=18;" parent="1" source="Tl4FQw_vcW-S3WmF4InZ-5" target="Tl4FQw_vcW-S3WmF4InZ-47" edge="1">
          <mxGeometry relative="1" as="geometry">
            <Array as="points">
              <mxPoint x="3900" y="380" />
              <mxPoint x="3200" y="380" />
            </Array>
          </mxGeometry>
        </mxCell>
        <mxCell id="Tl4FQw_vcW-S3WmF4InZ-52" style="edgeStyle=orthogonalEdgeStyle;rounded=0;orthogonalLoop=1;jettySize=auto;html=1;entryX=0.5;entryY=1;entryDx=0;entryDy=0;fontFamily=Verdana;fontSize=18;" parent="1" source="Tl4FQw_vcW-S3WmF4InZ-6" target="Tl4FQw_vcW-S3WmF4InZ-47" edge="1">
          <mxGeometry relative="1" as="geometry">
            <Array as="points">
              <mxPoint x="4180" y="380" />
              <mxPoint x="3200" y="380" />
            </Array>
          </mxGeometry>
        </mxCell>
        <mxCell id="Tl4FQw_vcW-S3WmF4InZ-48" style="edgeStyle=orthogonalEdgeStyle;rounded=0;orthogonalLoop=1;jettySize=auto;html=1;entryX=0.5;entryY=1;entryDx=0;entryDy=0;fontFamily=Verdana;fontSize=18;" parent="1" source="Tl4FQw_vcW-S3WmF4InZ-2" target="Tl4FQw_vcW-S3WmF4InZ-47" edge="1">
          <mxGeometry relative="1" as="geometry">
            <Array as="points">
              <mxPoint x="2065" y="380" />
              <mxPoint x="3200" y="380" />
            </Array>
          </mxGeometry>
        </mxCell>
      </root>
    </mxGraphModel>
  </diagram>
</mxfile>
